#!OML:ASF H:\Terrain\Patient Classification 1\Terrain2\Thursday\justin.ASF
:FULLY-SPECIFIED
:DEGREES
1165
root 26.6335 18.0677 -0.746835 -221.086 -80.9368 -135.625
lowerback 8.33962 2.07681 6.38778
upperback 2.34665 3.22271 4.11501
thorax -2.11333 1.5106 0.368058
lowerneck -15.3654 -0.863406 -9.24593
upperneck 36.9844 -0.932052 3.21515
head 15.7097 -1.70351 2.73074
rclavicle 1.49089e-014 4.53229e-014
rhumerus -29.8664 -4.20658 -83.2653
rradius 29.443
rwrist -9.69769
rhand -19.9715 11.7381
rfingers 7.12502
rthumb 6.36737 -18.1462
lclavicle 1.49089e-014 4.53229e-014
lhumerus -37.3829 8.44885 84.6423
lradius 27.4101
lwrist -1.64848
lhand -13.8914 20.2891
lfingers 7.12502
lthumb 12.2338 49.9113
rfemur 19.5017 -3.86068 27.15
rtibia -3.18055e-015
rfoot -1.73263 13.2934
rtoes -5.13251
lfemur -57.3535 6.86176 -12.9523
ltibia 72.9747
lfoot -11.9097 -14.3986
ltoes 16.1272
1166
root 26.5362 18.1345 -0.720865 -218.813 -80.843 -137.832
lowerback 8.38531 2.35776 6.35267
upperback 2.26677 3.60757 3.89778
thorax -2.19551 1.70348 0.122719
lowerneck -15.4497 -1.06693 -9.27312
upperneck 37.1256 -1.37345 3.58963
head 15.8402 -1.84465 2.82533
rclavicle 1.72943e-014 2.38542e-015
rhumerus -30.0528 -5.25769 -83.0567
rradius 29.2242
rwrist -9.30823
rhand -19.6726 11.7612
rfingers 7.12502
rthumb 6.6559 -18.1142
lclavicle 1.72943e-014 2.38542e-015
lhumerus -37.218 8.13446 84.6531
lradius 27.51
lwrist -1.67943
lhand -14.2487 20.2369
lfingers 7.12502
lthumb 11.8893 49.8793
rfemur 19.5724 -3.54034 26.6919
rtibia -4.13472e-014
rfoot 0.19753 13.4543
rtoes -4.01861
lfemur -56.5896 6.81142 -13.1756
ltibia 72.4983
lfoot -12.2462 -14.0821
ltoes 16.3605
1167
root 26.438 18.2027 -0.696711 -216.378 -80.783 -140.265
lowerback 8.42212 2.4745 6.08157
upperback 2.24513 3.74876 3.74814
thorax -2.24086 1.77674 0.101666
lowerneck -15.5577 -1.08057 -9.29671
upperneck 37.1872 -1.49117 3.88838
head 15.908 -1.85739 2.94157
rclavicle -1.27222e-014 -3.49861e-014
rhumerus -30.088 -5.85407 -82.9458
rradius 28.8916
rwrist -8.70675
rhand -19.7454 11.5075
rfingers 7.12502
rthumb 6.58556 -18.3701
lclavicle -1.27222e-014 -3.49861e-014
lhumerus -37.0458 8.08856 84.6295
lradius 27.5616
lwrist -1.56836
lhand -14.8343 20.4114
lfingers 7.12502
lthumb 11.3246 50.0857
rfemur 19.6787 -3.23975 26.1693
rtibia -6.99722e-014
rfoot 2.40048 13.3967
rtoes -2.31183
lfemur -55.7508 6.80457 -13.4575
ltibia 71.9506
lfoot -12.7092 -14.1073
ltoes 15.6897
1168
root 26.3382 18.2785 -0.678989 -213.903 -80.7594 -142.861
lowerback 8.52254 2.50276 5.649
upperback 2.2608 3.76081 3.62833
thorax -2.30092 1.78605 0.210627
lowerneck -15.4903 -0.976566 -9.19539
upperneck 37.0547 -1.39574 3.97195
head 15.8125 -1.78587 2.9736
rclavicle -3.8763e-014 -2.3059e-014
rhumerus -30.095 -5.85396 -83.0436
rradius 28.6372
rwrist -8.52515
rhand -19.7917 11.4526
rfingers 7.12502
rthumb 6.54087 -18.4264
lclavicle -3.8763e-014 -2.3059e-014
lhumerus -37.0699 8.32772 84.4926
lradius 27.8409
lwrist -1.53915
lhand -14.8142 20.3727
lfingers 7.12502
lthumb 11.3439 50.0459
rfemur 19.8667 -2.9833 25.6101
rtibia 2.54444e-014
rfoot 4.56162 13.3126
rtoes -0.465252
lfemur -54.7128 6.79181 -13.7816
ltibia 71.3121
lfoot -13.0877 -14.0682
ltoes 14.7844
1169
root 26.2365 18.3625 -0.661944 -211.436 -80.8177 -145.488
lowerback 8.63489 2.65691 5.25686
upperback 2.27184 3.9435 3.4788
thorax -2.36232 1.88036 0.249425
lowerneck -15.3448 -1.03795 -9.11002
upperneck 36.9167 -1.53427 4.00439
head 15.7199 -1.82073 2.94493
rclavicle 2.98177e-015 -2.54444e-014
rhumerus -30.3024 -5.71498 -83.0865
rradius 28.6375
rwrist -8.98089
rhand -19.5599 11.5916
rfingers 7.12502
rthumb 6.76468 -18.2803
lclavicle 2.98177e-015 -2.54444e-014
lhumerus -37.1354 8.30819 84.5252
lradius 28.2294
lwrist -1.46987
lhand -14.7045 19.9837
lfingers 7.12502
lthumb 11.4498 49.651
rfemur 20.0944 -2.80417 24.9722
rtibia -9.54166e-014
rfoot 6.70256 13.302
rtoes -0.22039
lfemur -53.556 6.63852 -14.178
ltibia 70.5902
lfoot -13.2799 -13.7795
ltoes 15.1148
1170
root 26.1387 18.4486 -0.639996 -209.783 -80.8584 -147.038
lowerback 8.56056 2.79856 5.14917
upperback 2.1574 4.12882 3.29077
thorax -2.42834 1.97494 0.0968993
lowerneck -15.2334 -1.14434 -8.97158
upperneck 36.9099 -1.7475 3.9813
head 15.7076 -1.89466 2.87256
rclavicle 2.14687e-014 4.6118e-014
rhumerus -30.6039 -5.88528 -83.0435
rradius 28.5854
rwrist -9.11018
rhand -19.3205 11.6638
rfingers 7.12502
rthumb 6.99573 -18.2006
lclavicle 2.14687e-014 4.6118e-014
lhumerus -37.1782 8.03103 84.5548
lradius 28.5053
lwrist -1.27804
lhand -14.9885 19.9202
lfingers 7.12502
lthumb 11.1759 49.6026
rfemur 19.9608 -2.70423 24.5428
rtibia 5.08889e-014
rfoot 8.77061 13.401
rtoes -2.1297
lfemur -52.703 6.28938 -14.4081
ltibia 69.8248
lfoot -13.4227 -13.4226
ltoes 15.897
1171
root 26.0446 18.5337 -0.611188 -209.703 -80.7309 -146.89
lowerback 8.39476 2.78717 5.33318
upperback 2.03204 4.12712 3.22366
thorax -2.44846 1.97345 -0.0686511
lowerneck -15.1227 -1.11781 -8.95002
upperneck 36.787 -1.73842 4.03448
head 15.6181 -1.87661 2.89021
rclavicle 1.80894e-014 -7.15625e-015
rhumerus -30.7216 -5.81291 -83.1367
rradius 28.4609
rwrist -9.12772
rhand -19.316 11.5053
rfingers 7.12502
rthumb 7.00008 -18.359
lclavicle 1.80894e-014 -7.15625e-015
lhumerus -37.2024 7.59657 84.6546
lradius 28.7946
lwrist -0.470738
lhand -15.1854 20.3916
lfingers 7.12502
lthumb 10.9859 50.0841
rfemur 19.6124 -2.59401 24.4332
rtibia -1.59028e-014
rfoot 11.2713 13.1971
rtoes -1.6139
lfemur -51.9915 5.80557 -14.276
ltibia 69.031
lfoot -13.2938 -13.0685
ltoes 18.4761
1172
root 25.9489 18.6194 -0.589411 -208.811 -80.51 -147.592
lowerback 8.13143 2.76424 5.18688
upperback 2.01738 4.06767 3.32762
thorax -2.33791 1.94705 0.138367
lowerneck -15.1627 -1.04137 -9.31393
upperneck 36.6611 -1.57225 4.26512
head 15.5559 -1.8195 3.08081
rclavicle -5.70512e-014 -3.4191e-014
rhumerus -30.5789 -6.06243 -82.9373
rradius 28.2594
rwrist -8.49406
rhand -19.2894 11.3592
rfingers 7.12502
rthumb 7.0258 -18.5041
lclavicle -5.70512e-014 -3.4191e-014
lhumerus -37.2375 7.48295 84.935
lradius 29.2145
lwrist 0.663185
lhand -14.9621 20.6118
lfingers 7.12502
lthumb 11.2013 50.2928
rfemur 19.3104 -2.3284 24.2031
rtibia -6.36111e-015
rfoot 14.3308 12.2728
rtoes 2.06254
lfemur -51.1894 5.50073 -14.2261
ltibia 68.1884
lfoot -13.2746 -12.7489
ltoes 19.921
1173
root 25.8584 18.6948 -0.575186 -206.865 -80.3998 -149.46
lowerback 7.98162 2.84746 4.8241
upperback 2.03854 4.13958 3.32053
thorax -2.25643 1.98803 0.3331
lowerneck -15.4058 -1.08618 -9.43353
upperneck 36.7137 -1.56791 4.26679
head 15.6428 -1.83236 3.10644
rclavicle -4.29375e-014 1.59028e-014
rhumerus -30.437 -6.8718 -82.5447
rradius 28.0646
rwrist -7.42037
rhand -19.0403 11.3224
rfingers 7.12502
rthumb 7.26621 -18.5328
lclavicle -4.29375e-014 1.59028e-014
lhumerus -37.2419 7.6099 85.0373
lradius 29.6585
lwrist 1.06046
lhand -14.8625 20.5048
lfingers 7.12502
lthumb 11.2974 50.1805
rfemur 17.3029 -2.16979 23.7406
rtibia 3.58303
rfoot 15.3171 11.9796
rtoes 4.05212
lfemur -50.35 5.53982 -14.5304
ltibia 67.3139
lfoot -13.4717 -12.498
ltoes 18.783
1174
root 25.7708 18.7783 -0.555972 -205.22 -80.4748 -151.208
lowerback 8.07162 2.91967 4.5813
upperback 2.06908 4.22149 3.16279
thorax -2.27858 2.03192 0.292987
lowerneck -15.5447 -1.17164 -9.26192
upperneck 36.6694 -1.69715 4.19458
head 15.6642 -1.86598 3.0224
rclavicle 3.13086e-014 7.95139e-015
rhumerus -30.3696 -6.91981 -82.5772
rradius 27.9495
rwrist -7.36831
rhand -18.8599 11.4366
rfingers 7.12502
rthumb 7.44035 -18.4125
lclavicle 3.13086e-014 7.95139e-015
lhumerus -37.1769 7.56353 84.9889
lradius 30.0037
lwrist 0.96261
lhand -14.9538 20.3521
lfingers 7.12502
lthumb 11.2093 50.0327
rfemur 16.0301 -2.18407 23.208
rtibia 6.05109
rfoot 16.2735 11.997
rtoes 3.86451
lfemur -49.2809 5.44239 -14.9301
ltibia 66.353
lfoot -13.5283 -12.2761
ltoes 18.8558
1175
root 25.6775 18.8786 -0.545796 -203.499 -80.6248 -153.158
lowerback 8.2306 2.87385 4.13334
upperback 2.06858 4.13719 3.07046
thorax -2.39526 1.99208 0.444295
lowerneck -15.383 -1.10077 -9.31042
upperneck 36.4999 -1.62187 4.30352
head 15.5343 -1.82061 3.08634
rclavicle 1.70955e-014 -6.36111e-015
rhumerus -30.4245 -6.42906 -82.7822
rradius 27.9069
rwrist -7.71838
rhand -18.8034 11.6376
rfingers 7.12502
rthumb 7.49493 -18.2096
lclavicle 1.70955e-014 -6.36111e-015
lhumerus -37.3162 7.33167 85.0688
lradius 30.4401
lwrist 1.53294
lhand -15.2845 20.4821
lfingers 7.12502
lthumb 10.8904 50.1797
rfemur 15.0641 -2.27129 22.6552
rtibia 8.25587
rfoot 17.037 11.9856
rtoes 4.404
lfemur -47.9163 5.06286 -15.2726
ltibia 65.2905
lfoot -13.652 -11.9689
ltoes 18.956
